<svg id="Layer_1" data-name="Layer 1" xmlns="http://www.w3.org/2000/svg" viewBox="0 0 100 100"><defs><style>.cls-1{fill:#fff;}</style></defs><title>fingerprint</title><path class="cls-1" d="M76.64,60.7c-.06,3.37-.31,6.71-.68,10-.1,1-.33,2-.46,2.94a1.5,1.5,0,0,1-1.83,1.12A1.63,1.63,0,0,1,72.55,73a72.77,72.77,0,0,0,.94-9.08,68.71,68.71,0,0,0-.17-9.19c-.4-4.32-.79-8.66-2.34-12.77a21.8,21.8,0,0,0-7.5-9.93A22.42,22.42,0,0,0,40.9,29.44a21.76,21.76,0,0,0-7.52,5.41,22.54,22.54,0,0,0-5.82,13.34A25.1,25.1,0,0,0,28,55a26.8,26.8,0,0,1,.34,9,1.44,1.44,0,0,1-1.62,1.39,1.4,1.4,0,0,1-1.31-1.67,27.43,27.43,0,0,0-.3-7.68,29.26,29.26,0,0,1-.7-6.17,25.51,25.51,0,0,1,9.43-19.6,25.46,25.46,0,0,1,29.38-2,25.14,25.14,0,0,1,6,5.07,26.16,26.16,0,0,1,6.06,13.24A96.21,96.21,0,0,1,76.64,60.7Z"/><path class="cls-1" d="M29.16,22.57a34.25,34.25,0,0,0-3.95,3.49,32.72,32.72,0,0,0-6.47,9.33A35.25,35.25,0,0,0,16,44a1.52,1.52,0,0,1-1.37,1.42,1.57,1.57,0,0,1-1.52-.9,1.67,1.67,0,0,1-.1-1.08A37.48,37.48,0,0,1,65.13,15.71a40.34,40.34,0,0,1,8.07,4.86A37.13,37.13,0,0,1,86.6,41.94c.39,1.71.7,3.44,1,5.18A1.54,1.54,0,0,1,86.36,49a1.51,1.51,0,0,1-1.79-1.44,59.34,59.34,0,0,0-1.24-6.35,34,34,0,0,0-7-13.4,36,36,0,0,0-5.29-5A34.17,34.17,0,0,0,59.88,17a33.1,33.1,0,0,0-12-1.4A34.84,34.84,0,0,0,29.16,22.57Z"/><path class="cls-1" d="M49.93,6.54a38.68,38.68,0,0,1,5.4.28,3.7,3.7,0,0,1,.58.1,1.5,1.5,0,0,1,1.16,1.81A1.44,1.44,0,0,1,55.4,9.9a37.65,37.65,0,0,0-7.5-.3,41.44,41.44,0,0,0-14.83,3.63,40.28,40.28,0,0,0-9.8,6.35,44.69,44.69,0,0,0-4,4.12,38.84,38.84,0,0,0-3.93,5.45,39.62,39.62,0,0,0-5.26,14.13,38.52,38.52,0,0,0,.14,14,14.58,14.58,0,0,1-.12,7A13,13,0,0,1,7,69.89,1.5,1.5,0,0,1,4.81,70a1.46,1.46,0,0,1,0-2.1A11.18,11.18,0,0,0,7,64a10.2,10.2,0,0,0,.33-5.5,42.9,42.9,0,0,1,.31-18.63A43.64,43.64,0,0,1,14,25.54a46.32,46.32,0,0,1,4.16-5.29,42,42,0,0,1,7.05-6A43.09,43.09,0,0,1,40.14,7.63,37.24,37.24,0,0,1,49.93,6.54Z"/><path class="cls-1" d="M58.53,57.34a61.92,61.92,0,0,1-1.21,15.72A60.79,60.79,0,0,1,52,88.42a63.34,63.34,0,0,1-6.25,9.91,1.64,1.64,0,0,1-1.65.8,1.47,1.47,0,0,1-.89-2.41c.91-1.29,1.87-2.53,2.74-3.85a63.38,63.38,0,0,0,3.26-5.66,56.7,56.7,0,0,0,4.42-11.46A59.36,59.36,0,0,0,55.3,66.2a53.44,53.44,0,0,0,.24-7.38,55.44,55.44,0,0,0-1.21-9.94,4.47,4.47,0,0,0-8.74,1.9,51.17,51.17,0,0,1,.92,12.89,42.75,42.75,0,0,1-1,7.3,1.5,1.5,0,0,1-1.45,1.26,1.54,1.54,0,0,1-1.49-1.13,1.44,1.44,0,0,1,0-.77,45,45,0,0,0,1-7.5,44.45,44.45,0,0,0-.92-11.39,7.54,7.54,0,1,1,14.87-2.51c.21,1.25.45,2.51.61,3.77C58.26,54.24,58.38,55.79,58.53,57.34Z"/><path class="cls-1" d="M94.55,60.76a86.84,86.84,0,0,1-.66,11.63A1.64,1.64,0,0,1,92.8,74a1.41,1.41,0,0,1-1.54-.41,1.56,1.56,0,0,1-.4-1.32c.15-1.63.32-3.26.45-4.9a87.41,87.41,0,0,0,.16-10.49c-.08-2.13-.22-4.26-.47-6.39-.7-5.89-1.62-11.72-4.15-17.17a38.91,38.91,0,0,0-4.8-8A18,18,0,0,0,79.93,23C78.86,22,78,20.88,77,19.9a27.21,27.21,0,0,0-3-2.43c-1.23-.89-2.48-1.72-3.77-2.5a36.93,36.93,0,0,0-6.94-3.19,10.17,10.17,0,0,1-1.09-.41,1.44,1.44,0,0,1-.77-1.94,1.48,1.48,0,0,1,1.86-.87,47.17,47.17,0,0,1,8.17,3.6A43.62,43.62,0,0,1,88.06,29a42.62,42.62,0,0,1,3.78,9.07,64.8,64.8,0,0,1,1.67,8.18c.4,2.65.65,5.32.86,8A59.52,59.52,0,0,1,94.55,60.76Z"/><path class="cls-1" d="M49.86,33.58A15.66,15.66,0,0,0,39.5,37.3a16.37,16.37,0,0,0-6,11.39,22.29,22.29,0,0,0,.57,6.1,37.41,37.41,0,0,1-.84,15.79,28.58,28.58,0,0,1-1.13,3.61A41,41,0,0,1,28,81.92a41.4,41.4,0,0,1-5.93,6.75l-.44.38a1.44,1.44,0,0,1-2.09,0,1.51,1.51,0,0,1,.15-2.25,31.61,31.61,0,0,0,4.13-4.29,31.28,31.28,0,0,0,2.92-4.21,37.27,37.27,0,0,0,3.63-8.61,35.8,35.8,0,0,0,1.11-11.15c-.13-2.09-.62-4.1-.88-6.15a19.49,19.49,0,0,1,16-21.55,21.2,21.2,0,0,1,4.77-.26,1.56,1.56,0,0,1,1.53,1.54,1.54,1.54,0,0,1-1.61,1.51Z"/><path class="cls-1" d="M68.66,77.58A65.89,65.89,0,0,1,65.72,87a79.32,79.32,0,0,1-5.06,10.56c-.72,1.24-2.06,1.43-2.75.35a1.46,1.46,0,0,1,0-1.65,69.66,69.66,0,0,0,5.29-11.18A72.3,72.3,0,0,0,67,69.44a73.29,73.29,0,0,0,.46-12A58.78,58.78,0,0,0,65.9,45.68a15.86,15.86,0,0,0-3.78-6.85,16.86,16.86,0,0,0-3.88-3.1c-1-.58-1.25-1.42-.78-2.21s1.36-1,2.36-.38a19.7,19.7,0,0,1,9.54,14.13,77.92,77.92,0,0,1,1.19,15.09A74.65,74.65,0,0,1,68.66,77.58Z"/><path class="cls-1" d="M47.94.55a48.53,48.53,0,0,1,23.66,5,1.5,1.5,0,0,1,.48,2.59,1.59,1.59,0,0,1-1.8.13c-1-.49-2-1-3.07-1.36A46,46,0,0,0,36.87,5.45a44.52,44.52,0,0,0-10.94,4.81,47.57,47.57,0,0,0-7.39,5.55A44.26,44.26,0,0,0,14,20.67c-.5.62-1,1.23-1.5,1.87a1.54,1.54,0,0,1-2.13.41A1.44,1.44,0,0,1,10,20.84a39.5,39.5,0,0,1,3.82-4.65A49.45,49.45,0,0,1,42.85,1,45.42,45.42,0,0,1,47.94.55Z"/><path class="cls-1" d="M81.73,48.73c-.7-5.19-1.85-10.25-4.63-14.79-.29-.48-.57-1-.88-1.43a1.18,1.18,0,0,0-1.66-.33l-.61.43a1.17,1.17,0,0,0-.29,1.65h0a23.62,23.62,0,0,1,3.82,8.38,75.52,75.52,0,0,1,2.06,16.61,82.44,82.44,0,0,1-.79,12.85,73,73,0,0,1-1.35,7.32,83.47,83.47,0,0,1-3,10,5.46,5.46,0,0,0-.27.87,1.42,1.42,0,0,0,.94,1.7,1.5,1.5,0,0,0,1.88-.83c.75-1.89,1.38-3.82,2-5.76a85.26,85.26,0,0,0,3.68-24A84.61,84.61,0,0,0,81.73,48.73Z"/><path class="cls-1" d="M28,27.39l.75-.76c.46-.45,1-1.24,1.67-1.42a1.8,1.8,0,0,1,1.88.69,1.52,1.52,0,0,1-.5,2.15,28.07,28.07,0,0,0-6.56,7.79A28.79,28.79,0,0,0,21.5,51.45,50,50,0,0,0,22.31,57,24.92,24.92,0,0,1,20,71.89a24.53,24.53,0,0,1-6.89,8.63,1.47,1.47,0,0,1-2.18-.13,1.54,1.54,0,0,1,.37-2.27A22.78,22.78,0,0,0,17.08,71a22.35,22.35,0,0,0,2.49-10,24.2,24.2,0,0,0-.52-5.15A30.28,30.28,0,0,1,20,40.46a31,31,0,0,1,4.14-8.33,37.92,37.92,0,0,1,3-3.72C27.39,28.07,27.7,27.73,28,27.39Z"/><path class="cls-1" d="M52.61,60.11A55.86,55.86,0,0,1,46.3,86.38a55.11,55.11,0,0,1-7.38,10.77,1.58,1.58,0,0,1-1.57.7,1.5,1.5,0,0,1-.8-2.56,62.73,62.73,0,0,0,4.33-5.66,52.76,52.76,0,0,0,5.65-11.26,53,53,0,0,0,3-14.75,52.7,52.7,0,0,0-1-13.14,1.51,1.51,0,0,1,1.1-1.9,1.47,1.47,0,0,1,1.84,1.2,47.52,47.52,0,0,1,.88,5.82C52.5,57.37,52.56,59.14,52.61,60.11Z"/><path class="cls-1" d="M99.5,49.1v1.75A1.51,1.51,0,0,1,98,52.49a1.58,1.58,0,0,1-1.56-1.58c0-.89,0-1.78,0-2.66A47.56,47.56,0,0,0,91.3,28.74a44.54,44.54,0,0,0-8.24-11.32,47.06,47.06,0,0,0-6-5.14,5.19,5.19,0,0,1-.46-.36,1.47,1.47,0,0,1-.3-2,1.41,1.41,0,0,1,2-.38c.86.57,1.7,1.19,2.51,1.84A49.55,49.55,0,0,1,93,25.54a47.76,47.76,0,0,1,4.22,9.8A51.68,51.68,0,0,1,99.44,47c0,.7,0,1.42,0,2.13Z"/><path class="cls-1" d="M50.83,36.48a13.23,13.23,0,0,1,10.62,6.33,14.43,14.43,0,0,1,2,5.62,70.23,70.23,0,0,1,1.12,11.85,1.57,1.57,0,0,1-.83,1.62A1.47,1.47,0,0,1,61.64,61a3.25,3.25,0,0,1-.09-.83A60.63,60.63,0,0,0,60.19,47.6a10.51,10.51,0,0,0-19.28-2.89,9.17,9.17,0,0,0-1.18,3A1.45,1.45,0,0,1,38.48,49a1.48,1.48,0,0,1-1.71-1.89,13.18,13.18,0,0,1,5.48-8.21A14,14,0,0,1,50.83,36.48Z"/><path class="cls-1" d="M40.58,60.21a43.74,43.74,0,0,1-3,16.43A43.53,43.53,0,0,1,31,88a42.85,42.85,0,0,1-4,4.37,1.51,1.51,0,0,1-2.55-.27,1.61,1.61,0,0,1,.47-1.93,40.05,40.05,0,0,0,6.24-7.5,40.45,40.45,0,0,0,6.13-16.85,42.09,42.09,0,0,0,0-10.34,1.47,1.47,0,0,1,1.28-1.83,1.5,1.5,0,0,1,1.68,1.46A30.94,30.94,0,0,1,40.58,60.21Z"/><path class="cls-1" d="M3.43,63a1.48,1.48,0,0,1-1.49-1.28A47.55,47.55,0,0,1,.79,55.58a53.84,53.84,0,0,1-.25-7.83A46.48,46.48,0,0,1,2.18,37.09a44.81,44.81,0,0,1,1.46-4.56A40.83,40.83,0,0,1,6,27.36a1.49,1.49,0,0,1,1.75-.6,1.46,1.46,0,0,1,1,1.63,3.34,3.34,0,0,1-.31.85,45.66,45.66,0,0,0-3.6,31.68A1.54,1.54,0,0,1,3.43,63Z"/><path class="cls-1" d="M68.29,28.11A15.55,15.55,0,0,1,66.73,27a28.36,28.36,0,0,0-14.27-5.33,28.71,28.71,0,0,0-14.28,2.43,1.36,1.36,0,0,1-2.06-.67,1.55,1.55,0,0,1,.82-2.11,34.05,34.05,0,0,1,10.89-2.72,31.53,31.53,0,0,1,15.09,2.7,39.91,39.91,0,0,1,4.36,2.37,23.44,23.44,0,0,1,2.53,1.89,1.49,1.49,0,0,1-.3,2.69A1.15,1.15,0,0,1,68.29,28.11Z"/><path class="cls-1" d="M62.63,66.71a1.5,1.5,0,0,1,1.52,1.76,71.23,71.23,0,0,1-2.32,11.28,69.2,69.2,0,0,1-4.83,12,69.32,69.32,0,0,1-4.08,6.84c-.71,1.07-1.69,1.2-2.48.38a1.37,1.37,0,0,1-.17-1.83,63.25,63.25,0,0,0,5.12-8.93,63,63,0,0,0,3-7.46A63.61,63.61,0,0,0,61,69.53c.07-.51.12-1,.22-1.54A1.4,1.4,0,0,1,62.63,66.71Z"/><path class="cls-1" d="M88.61,60.2a92.82,92.82,0,0,1-2.85,23c-.1.38-.17.76-.3,1.13a1.49,1.49,0,0,1-2.88-.73c.09-.58.26-1.14.4-1.71a86.79,86.79,0,0,0,2.33-14.62c.22-3.08.25-6.16.21-9.25,0-.91-.1-1.81-.11-2.72a1.45,1.45,0,0,1,1.44-1.64,1.57,1.57,0,0,1,1.59,1.62C88.48,57.1,88.69,59,88.61,60.2Z"/><path class="cls-1" d="M16.56,60.72a19.24,19.24,0,0,1-3.63,11.34,19.14,19.14,0,0,1-3.12,3.42,1.51,1.51,0,0,1-2.2,0,1.55,1.55,0,0,1,.24-2.33,16.31,16.31,0,0,0,5.69-12,23.25,23.25,0,0,0-.6-5.26,34.58,34.58,0,0,1-.44-4.31,1.55,1.55,0,0,1,1.5-1.7,1.57,1.57,0,0,1,1.52,1.6,41,41,0,0,0,.79,6A15.88,15.88,0,0,1,16.56,60.72Z"/><path class="cls-1" d="M43.29,78.1a2.3,2.3,0,0,1-.24,1A51.84,51.84,0,0,1,34.4,93.26c-.54.64-1.12,1.25-1.7,1.86a1.69,1.69,0,0,1-1.77.54,1.41,1.41,0,0,1-1-1.15,1.7,1.7,0,0,1,.68-1.59,44.58,44.58,0,0,0,3.42-4,47.74,47.74,0,0,0,6.37-11.31,1.49,1.49,0,0,1,2.91.47Z"/><path class="cls-1" d="M22,74.43a32.65,32.65,0,0,0,1.59-3.32A1.53,1.53,0,0,1,25.06,70a1.6,1.6,0,0,1,1.45,1,.84.84,0,0,1,0,.62,15.08,15.08,0,0,1-1.33,3.22C24.67,76,24,77,23.41,78a19.16,19.16,0,0,1-1.6,2.16c-.57.76-1.2,1.47-1.84,2.18a34.85,34.85,0,0,1-2.73,2.56A1.66,1.66,0,0,1,14.9,85a1.65,1.65,0,0,1,.39-2.39A28.26,28.26,0,0,0,22,74.43Z"/><path class="cls-1" d="M72.43,79.31a1.49,1.49,0,0,1,1.42,1.93A49.48,49.48,0,0,1,72.43,86a78.16,78.16,0,0,1-3.69,9.06,2.5,2.5,0,0,1-.6.9,1.49,1.49,0,0,1-1.81,0,1.47,1.47,0,0,1-.49-1.79c.66-1.55,1.4-3.07,2-4.63.72-1.77,1.41-3.56,2-5.39.31-.95.6-1.92.84-2.89S71.1,79.32,72.43,79.31Z"/><path class="cls-1" d="M29.37,22.52l.16-.12Z"/><path class="cls-1" d="M29.25,22.68l.12-.15Z"/></svg>